<?xml version="1.0" encoding="UTF-8" standalone="no"?>
<svg width="55px" height="55px" viewBox="0 0 55 55" version="1.1" xmlns="http://www.w3.org/2000/svg" xmlns:xlink="http://www.w3.org/1999/xlink">
    <!-- Generator: Sketch 42 (36781) - http://www.bohemiancoding.com/sketch -->
    <title>github</title>
    <desc>Created with Sketch.</desc>
    <defs>
        <circle id="path-1" cx="27.5" cy="27.5" r="27.5"></circle>
        <mask id="mask-2" maskContentUnits="userSpaceOnUse" maskUnits="objectBoundingBox" x="0" y="0" width="55" height="55" fill="white">
            <use xlink:href="#path-1"></use>
        </mask>
    </defs>
    <g id="HD" stroke="none" stroke-width="1" fill="none" fill-rule="evenodd">
        <g id="Desktop-HD" transform="translate(-603.000000, -597.000000)">
            <g id="github" transform="translate(603.000000, 597.000000)">
                <rect id="Rectangle" x="0" y="0" width="55" height="55"></rect>
                <use id="Oval" stroke="#343188" mask="url(#mask-2)" stroke-width="1.03999996" xlink:href="#path-1"></use>
                <path d="M12.5,27.8805423 C12.5,34.6747954 16.7975536,40.4399022 22.7581417,42.4736461 C23.5086252,42.6152718 23.7821142,42.1403539 23.7821142,41.7324721 C23.7821142,41.367078 23.7692225,40.4002471 23.7618558,39.117119 C19.5895362,40.046183 18.7092145,37.0550499 18.7092145,37.0550499 C18.0268731,35.2781205 17.0434175,34.8050909 17.0434175,34.8050909 C15.6814973,33.8505342 17.1465515,33.8703618 17.1465515,33.8703618 C18.6521225,33.9789415 19.4440437,35.4556246 19.4440437,35.4556246 C20.782943,37.8056657 22.9552012,37.1268069 23.8097394,36.7330877 C23.9460235,35.7388758 24.3336966,35.0619054 24.7618865,34.6766837 C21.4312134,34.2886295 17.9292642,32.9696229 17.9292642,27.0761088 C17.9292642,25.3964289 18.5139967,24.0236046 19.4735105,22.948194 C19.3197305,22.5591957 18.8049817,20.9956488 19.6208447,18.8788179 C19.6208447,18.8788179 20.8805519,18.4643269 23.7452807,20.454639 C24.9423709,20.1137933 26.225099,19.9428984 27.5004604,19.9372334 C28.774901,19.9428984 30.0576291,20.1137933 31.256561,20.454639 C34.1194481,18.4643269 35.3773136,18.8788179 35.3773136,18.8788179 C36.1950183,20.9956488 35.6802695,22.5591957 35.5264895,22.948194 C36.4878449,24.0236046 37.0679732,25.3964289 37.0679732,27.0761088 C37.0679732,32.9837855 33.5614199,34.2839086 30.2196967,34.6653536 C30.7583873,35.1402716 31.2372234,36.0787773 31.2372234,37.5129728 C31.2372234,39.5693768 31.2197274,41.2282849 31.2197274,41.7324721 C31.2197274,42.1441305 31.4895331,42.621881 32.2510666,42.4717578 C38.2061297,40.4342372 42.5,34.6738512 42.5,27.8805423 C42.5,19.3858376 35.7834034,12.5 27.4986187,12.5 C19.2165966,12.5 12.5,19.3858376 12.5,27.8805423 Z" id="Shape" fill="#343188"></path>
            </g>
        </g>
    </g>
</svg>