<?xml version="1.0" encoding="UTF-8" standalone="no"?>
<svg width="55px" height="55px" viewBox="0 0 55 55" version="1.1" xmlns="http://www.w3.org/2000/svg" xmlns:xlink="http://www.w3.org/1999/xlink">
    <!-- Generator: Sketch 42 (36781) - http://www.bohemiancoding.com/sketch -->
    <title>twitter</title>
    <desc>Created with Sketch.</desc>
    <defs>
        <circle id="path-1" cx="27.5" cy="27.5" r="27.5"></circle>
        <mask id="mask-2" maskContentUnits="userSpaceOnUse" maskUnits="objectBoundingBox" x="0" y="0" width="55" height="55" fill="white">
            <use xlink:href="#path-1"></use>
        </mask>
    </defs>
    <g id="HD" stroke="none" stroke-width="1" fill="none" fill-rule="evenodd">
        <g id="Desktop-HD" transform="translate(-698.000000, -597.000000)">
            <g id="twitter" transform="translate(698.000000, 597.000000)">
                <rect id="Rectangle" x="0" y="0" width="55" height="55"></rect>
                <use id="Oval" stroke="#60519E" mask="url(#mask-2)" stroke-width="1.03999996" xlink:href="#path-1"></use>
                <path d="M38.1576862,21.0571645 C39.270118,20.3551567 40.1237014,19.2420194 40.5243001,17.9160046 C39.4827434,18.5676369 38.3317926,19.0388921 37.1038035,19.2940199 C36.1238774,18.1890077 34.7233228,17.5 33.173314,17.5 C30.199639,17.5 27.7898838,20.0431533 27.7898838,23.1794381 C27.7898838,23.6246931 27.8345659,24.0585729 27.9270118,24.4729525 C23.4526325,24.2356998 19.4851646,21.9769247 16.8273464,18.5383865 C16.3635763,19.3801459 16.0985649,20.3551567 16.0985649,21.3951683 C16.0985649,23.3646902 17.0492164,25.1034595 18.4944532,26.1239708 C17.6115954,26.0947205 16.7811234,25.8363426 16.0538827,25.4138379 L16.0538827,25.4837137 C16.0538827,28.2364943 17.9089628,30.5326448 20.3757264,31.0526506 C19.9227417,31.1859021 19.4481863,31.2525278 18.9551418,31.2525278 C18.6084698,31.2525278 18.2695017,31.2184024 17.9428597,31.1517767 C18.626959,33.4073017 20.6160856,35.05182 22.9734548,35.0956955 C21.1291601,36.6199624 18.8072284,37.5267225 16.2849974,37.5267225 C15.8505018,37.5267225 15.4206286,37.5023472 15,37.4487217 C17.3835622,39.0591145 20.2139461,40 23.2554147,40 C33.1625286,40 38.5767741,31.3451538 38.5767741,23.8391954 C38.5767741,23.5921927 38.5736926,23.346815 38.5629072,23.1046873 C39.6152492,22.3035534 40.5304631,21.3025423 41.25,20.1634046 C40.2839408,20.6151596 39.2454658,20.920663 38.1576862,21.0571645 Z" id="Shape" fill="#60519E"></path>
            </g>
        </g>
    </g>
</svg>